# xmcd
#
# Track frame offsets: 
#        150
#        17777
#        35645
#
# Disc length: 709 seconds
#
# Revision: 4
# Processed by: cddbd v1.5.2PL0 Copyright (c) Steve Scherf et al.
# Submitted via: ExactAudioCopyFreeDBPlugin 1.0
#
DISCID=1e02c303
DTITLE=Leona Lewis - Better In Time and Footprints In The Sand [CDS)
DYEAR=2008
DGENRE=R&B
TTITLE0=Better In Time (Single Mix)
TTITLE1=Footprints In The Sand (Single Mix)
TTITLE2=You Bring Me Down
EXTD=
EXTT0=
EXTT1=
EXTT2=
PLAYORDER=
